<svg viewBox="0 0 50 50" xmlns="http://www.w3.org/2000/svg"><path d="m31 8s-3.363281-.074219-5.71875 2.28125c-.398437.398438-.398437 1.039063 0 1.4375.398438.398438 1.039063.398438 1.4375 0 1.3125-1.3125 2.917969-1.554687 3.65625-1.625.203125.429688.429688.90625.53125 1.40625.011719.074219.035156.148438.0625.21875-.074219.457031-.304687 1.132813-.78125 1.6875-.398437.398438-.789062.59375-1.1875.59375-6.101562 0-7.304687 2.90625-7.90625 4.40625-.101562.199219-.1875.394531-.1875.59375-3.199219 0-5.601562-.898437-6-1.5-1.398437-2.398437-2.507812-2.5-6.90625-2.5-6.898437 0-7.898437 3.414063-8 3.8125-.101563.300781-.0117188.574219.1875.875.101563.101563 1.320313 1.3125 3.71875 1.3125h.5c1.398438-.601562 2.898438-1 4.5-1 6.101563 0 11 4.898438 11 11 0 .800781-.113281 1.605469-.3125 2.40625 1.800781.5 3.820313.59375 4.71875.59375h.1875c1.800781 0 4.398438-.492187 5.5-1.59375.5-.5.59375-1 .59375-1.5-.871094-6.019531 2.140625-8.75 3.53125-9.6875.398438.910156.804688 1.824219 1.25 2.71875-2.078125 1.601563-3.375 4.183594-3.375 6.96875 0 5 4 9 9 9s9-4 9-9-4-8.90625-9-8.90625c-1.398437 0-2.707031.304688-3.90625.90625.601563 1.199219 1.300781 2.398438 2 3.5.601563-.199219 1.207031-.40625 1.90625-.40625 2.800781 0 5 2.199219 5 5s-2.199219 5-5 5-5-2.199219-5-5c0-1.398437.507813-2.601562 1.40625-3.5-.6875-1.082031-1.375-2.257812-1.96875-3.53125.492188-.390625 1.070313-.769531 1.65625-1.0625-.898437-1.800781-1.804687-3.695312-2.40625-5.59375-.035156-.089844-.070312-.175781-.125-.25-.804687-2.636719-1.582031-5.894531-1.65625-5.96875-.011719-.054687-.042969-.105469-.0625-.15625-.28125-1.222656-.96875-2.40625-.96875-2.40625-.171875-.324219-.507812-.527344-.875-.53125zm6.40625 19.5c1.199219 2 2.605469 3.789063 3.90625 5.1875.199219.199219.488281.3125.6875.3125s.488281-.113281.6875-.3125c.398438-.398437.398438-.976562 0-1.375-1.199219-1.300781-2.488281-3.007812-3.6875-4.90625-.601562.300781-1.09375.59375-1.59375 1.09375zm.1875-15.5c-.800781 0-1.582031.113281-2.28125.3125.601563 2.199219 1.375 5.074219 1.875 6.375 0 .101563.125.210938.125.3125h.28125c1.300781 0 2.117188-.3125 2.71875-.8125.699219-.699219.6875-1.699219.6875-2.5v-.375c0-.800781.011719-1.800781-.6875-2.5-.601562-.5-1.417969-.8125-2.71875-.8125zm-28.59375 10c-5 0-9 4-9 9s4 9 9 9c4.601563 0 8.40625-3.5 8.90625-8h-4c-.5 2.300781-2.507812 4-4.90625 4-2.800781 0-5-2.199219-5-5s2.199219-5 5-5c2.398438 0 4.40625 1.699219 4.90625 4h4c-.5-4.5-4.304687-8-8.90625-8zm4.90625 8h-2.0625c-.398437-1.183594-1.496094-2-2.84375-2-1.699219 0-3 1.300781-3 3s1.300781 3 3 3c1.347656 0 2.445313-.816406 2.84375-2h2.0625c.101563-.300781.09375-.699219.09375-1s.007813-.699219-.09375-1z"/></svg>